<?xml version="1.0" encoding="UTF-8"?>
<svg width="24" height="24" viewBox="0 0 24 24" fill="none" xmlns="http://www.w3.org/2000/svg">
    <path d="M11 4H4C3.44772 4 3 4.44772 3 5V19C3 19.5523 3.44772 20 4 20H18C18.5523 20 19 19.5523 19 19V12" stroke="currentColor" stroke-width="2" stroke-linecap="round" stroke-linejoin="round"/>
    <path d="M18.5 2.50001C18.8978 2.10219 19.4374 1.87869 20 1.87869C20.5626 1.87869 21.1022 2.10219 21.5 2.50001C21.8978 2.89784 22.1213 3.4374 22.1213 4.00001C22.1213 4.56262 21.8978 5.10219 21.5 5.50001L12 15L8 16L9 12L18.5 2.50001Z" stroke="currentColor" stroke-width="2" stroke-linecap="round" stroke-linejoin="round"/>
</svg> 